HIERARCHY
ROOT hip
{
  OFFSET 0 0 0
  CHANNELS 6 Xposition Yposition Zposition Zrotation Yrotation Xrotation
  JOINT abdomen
  {
    OFFSET 0 20.6881 -0.73152
    CHANNELS 3 Zrotation Xrotation Yrotation
    JOINT chest
    {
      OFFSET 0 11.7043 -0.48768
      CHANNELS 3 Zrotation Xrotation Yrotation
      JOINT neck
      {
        OFFSET 0 22.1894 -2.19456
        CHANNELS 3 Zrotation Xrotation Yrotation
        JOINT head
        {
          OFFSET -0.24384 7.07133 1.2192
          CHANNELS 3 Zrotation Xrotation Yrotation
          JOINT leftEye
          {
            OFFSET 4.14528 8.04674 8.04672
            CHANNELS 3 Zrotation Xrotation Yrotation
            End Site
            {
              OFFSET 1 0 0
            }
          }
          JOINT rightEye
          {
            OFFSET -3.6576 8.04674 8.04672
            CHANNELS 3 Zrotation Xrotation Yrotation
            End Site
            {
              OFFSET 1 0 0
            }
          }
        }
      }
      JOINT rCollar
      {
        OFFSET -2.68224 19.2634 -4.8768
        CHANNELS 3 Zrotation Xrotation Yrotation
        JOINT rShldr
        {
          OFFSET -8.77824 -1.95073 1.46304
          CHANNELS 3 Zrotation Xrotation Yrotation
          JOINT rForeArm
          {
            OFFSET -28.1742 -1.7115 0.48768
            CHANNELS 3 Zrotation Xrotation Yrotation
            JOINT rHand
            {
              OFFSET -22.5879 0.773209 7.07136
              CHANNELS 3 Zrotation Xrotation Yrotation
              JOINT rThumb1
              {
                OFFSET -1.2192 -0.487915 3.41376
                CHANNELS 3 Zrotation Xrotation Yrotation
                JOINT rThumb2
                {
                  OFFSET -3.37035 -0.52449 3.41376
                  CHANNELS 3 Zrotation Xrotation Yrotation
                  End Site
                  {
                    OFFSET -1.78271 -1.18214 1.43049
                  }
                }
              }
              JOINT rIndex1
              {
                OFFSET -7.75947 0.938293 5.60832
                CHANNELS 3 Zrotation Xrotation Yrotation
                JOINT rIndex2
                {
                  OFFSET -2.54057 -0.884171 1.56538
                  CHANNELS 3 Zrotation Xrotation Yrotation
                  End Site
                  {
                    OFFSET -1.62519 -0.234802 1.16502
                  }
                }
              }
              JOINT rMid1
              {
                OFFSET -8.24714 1.18213 3.41376
                CHANNELS 3 Zrotation Xrotation Yrotation
                JOINT rMid2
                {
                  OFFSET -3.10165 -0.590103 1.0647
                  CHANNELS 3 Zrotation Xrotation Yrotation
                  End Site
                  {
                    OFFSET -2.48547 -0.328903 0.83742
                  }
                }
              }
              JOINT rRing1
              {
                OFFSET -8.82822 0.546677 1.51678
                CHANNELS 3 Zrotation Xrotation Yrotation
                JOINT rRing2
                {
                  OFFSET -2.60934 -0.819778 -0.0198488
                  CHANNELS 3 Zrotation Xrotation Yrotation
                  End Site
                  {
                    OFFSET -2.33842 -0.294052 0.168128
                  }
                }
              }
              JOINT rPinky1
              {
                OFFSET -8.27202 -0.0477905 -0.4584
                CHANNELS 3 Zrotation Xrotation Yrotation
                JOINT rPinky2
                {
                  OFFSET -1.82734 -0.647385 -0.700984
                  CHANNELS 3 Zrotation Xrotation Yrotation
                  End Site
                  {
                    OFFSET -1.69225 -0.51767 -0.607171
                  }
                }
              }
            }
          }
        }
      }
      JOINT lCollar
      {
        OFFSET 2.68224 19.2634 -4.8768
        CHANNELS 3 Zrotation Xrotation Yrotation
        JOINT lShldr
        {
          OFFSET 8.77824 -1.95073 1.46304
          CHANNELS 3 Zrotation Xrotation Yrotation
          JOINT lForeArm
          {
            OFFSET 28.1742 -1.7115 0.48768
            CHANNELS 3 Zrotation Xrotation Yrotation
            JOINT lHand
            {
              OFFSET 22.5879 0.773209 7.07136
              CHANNELS 3 Zrotation Xrotation Yrotation
              JOINT lThumb1
              {
                OFFSET 1.2192 -0.487915 3.41376
                CHANNELS 3 Zrotation Xrotation Yrotation
                JOINT lThumb2
                {
                  OFFSET 3.37035 -0.52449 3.41376
                  CHANNELS 3 Zrotation Xrotation Yrotation
                  End Site
                  {
                    OFFSET 1.78271 -1.18214 1.43049
                  }
                }
              }
              JOINT lIndex1
              {
                OFFSET 7.75947 0.938293 5.60832
                CHANNELS 3 Zrotation Xrotation Yrotation
                JOINT lIndex2
                {
                  OFFSET 2.54057 -0.884171 1.56538
                  CHANNELS 3 Zrotation Xrotation Yrotation
                  End Site
                  {
                    OFFSET 1.62519 -0.234802 1.16502
                  }
                }
              }
              JOINT lMid1
              {
                OFFSET 8.24714 1.18213 3.41376
                CHANNELS 3 Zrotation Xrotation Yrotation
                JOINT lMid2
                {
                  OFFSET 3.10165 -0.590103 1.0647
                  CHANNELS 3 Zrotation Xrotation Yrotation
                  End Site
                  {
                    OFFSET 2.48547 -0.328903 0.83742
                  }
                }
              }
              JOINT lRing1
              {
                OFFSET 8.82822 0.546677 1.51678
                CHANNELS 3 Zrotation Xrotation Yrotation
                JOINT lRing2
                {
                  OFFSET 2.60934 -0.819778 -0.0198488
                  CHANNELS 3 Zrotation Xrotation Yrotation
                  End Site
                  {
                    OFFSET 2.33842 -0.294052 0.168128
                  }
                }
              }
              JOINT lPinky1
              {
                OFFSET 8.27202 -0.0477905 -0.4584
                CHANNELS 3 Zrotation Xrotation Yrotation
                JOINT lPinky2
                {
                  OFFSET 1.82734 -0.647385 -0.700984
                  CHANNELS 3 Zrotation Xrotation Yrotation
                  End Site
                  {
                    OFFSET 1.69225 -0.51767 -0.607171
                  }
                }
              }
            }
          }
        }
      }
    }
  }
  JOINT rButtock
  {
    OFFSET -8.77824 4.35084 1.2192
    CHANNELS 3 Zrotation Xrotation Yrotation
    JOINT rThigh
    {
      OFFSET 0 -1.70687 -2.19456
      CHANNELS 3 Zrotation Xrotation Yrotation
      JOINT rShin
      {
        OFFSET 0 -36.8199 0.73152
        CHANNELS 3 Zrotation Xrotation Yrotation
        JOINT rFoot
        {
          OFFSET 0.73152 -45.1104 -5.12064
          CHANNELS 3 Zrotation Xrotation Yrotation
          End Site
          {
            OFFSET -1.1221 -3.69964 12.103
          }
        }
      }
    }
  }
  JOINT lButtock
  {
    OFFSET 8.77824 4.35084 1.2192
    CHANNELS 3 Zrotation Xrotation Yrotation
    JOINT lThigh
    {
      OFFSET 0 -1.70687 -2.19456
      CHANNELS 3 Zrotation Xrotation Yrotation
      JOINT lShin
      {
        OFFSET 0 -36.8199 0.73152
        CHANNELS 3 Zrotation Xrotation Yrotation
        JOINT lFoot
        {
          OFFSET -0.73152 -45.1104 -5.12064
          CHANNELS 3 Zrotation Xrotation Yrotation
          End Site
          {
            OFFSET 1.1221 -3.69964 12.103
          }
        }
      }
    }
  }
}
MOTION
Frames:	5
Frame Time:	0.00833333
-150.804 85.2982 6.55668 0.0 0.0 0.0 0.984354 -0.00436094 0.0272514 0.271545 -0.00455349 0.0470445 3.51926e-15 0.0 9.93923e-17 1.02716e-14 3.18055e-15 3.21472e-16 -0.0 0.0 0.0 -0.0 0.0 0.0 1.6884e-15 0.0 1.98785e-16 3.65622e-14 -2.04997e-16 1.98785e-15 6.12306e-13 -1.82882e-13 3.81667e-14 7.00428e-12 1.85242e-13 2.09917e-13 1.6525e-11 8.32542e-15 5.56597e-13 2.85324e-11 1.27222e-14 9.61323e-13 1.65293e-11 8.74653e-15 5.47055e-13 7.73091 5.47488 0.417314 1.65243e-11 8.24956e-15 5.59778e-13 2.90554 0.965183 0.102902 1.6528e-11 8.15017e-15 5.58982e-13 10.2786 0.731801 0.0259123 1.6521e-11 9.54166e-15 5.69319e-13 2.22167 -0.733487 -0.20892 1.59167e-15 -3.10601e-18 -9.93923e-17 3.30337e-14 -1.86361e-16 3.97569e-16 6.10468e-13 1.83279e-13 1.59028e-14 7.00768e-12 -1.85516e-13 2.54444e-13 1.65308e-11 -2.35451e-15 5.59778e-13 2.85534e-11 -6.36111e-15 9.83587e-13 1.65278e-11 -1.19271e-15 5.69319e-13 -7.73091 5.47488 -0.417314 1.65311e-11 -2.28602e-15 5.62958e-13 -2.90554 0.965183 -0.102902 1.65232e-11 -1.98785e-15 5.63753e-13 -10.2786 0.731801 -0.0259123 1.65339e-11 -7.95139e-16 5.56597e-13 -2.22167 -0.733487 0.20892 -2.03217e-16 0.0 -3.88251e-19 1.24884 -5.45297 -0.109164 6.91156e-05 4.32233 0.0238791 -0.51069 1.12952 0.0812366 2.03217e-16 0.0 3.88251e-19 0.249685 -1.91924 0.0129229 0.00928355 -2.07855 0.0766834 0.496239 3.99654 -0.137943
-147.966 82.8014 -0.475898 -158.778 72.2517 -138.417 3.34511 -6.11047 2.89249 -0.874295 2.69336 0.847467 5.21323 4.09104 4.2268 -5.8894 -0.687399 8.65553 -0.0 0.0 0.0 -0.0 0.0 0.0 1.6035e-13 5.12508e-13 2.14121e-14 22.2457 5.25151 -1.36812 -5.60167 -2.89823 8.3319 0.0165765 -2.85655 -0.399661 -1.2718e-09 -7.69022e-13 1.13822e-09 -2.20195e-09 -2.19665e-12 1.96217e-09 -1.27179e-09 -7.69766e-13 1.13821e-09 7.73091 5.47488 0.417314 -1.2718e-09 -7.69958e-13 1.13822e-09 2.90554 0.965183 0.102902 -1.27179e-09 -7.70263e-13 1.13822e-09 10.2786 0.731801 0.0259123 -1.2718e-09 -7.68809e-13 1.13822e-09 2.22167 -0.733487 -0.20892 1.60304e-13 5.12505e-13 2.11853e-14 -22.1256 9.72781 -2.91431 3.04134 -1.20908 -4.92151 5.81958e-06 -0.0629276 0.00884401 -5.42129e-10 -2.10403e-10 -2.66942e-09 -9.39683e-10 -3.62996e-10 -4.61349e-09 -5.42134e-10 -2.10402e-10 -2.66941e-09 -7.73091 5.47488 -0.417314 -5.42128e-10 -2.10405e-10 -2.66942e-09 -2.90554 0.965183 -0.102902 -5.42138e-10 -2.10403e-10 -2.66942e-09 -10.2786 0.731801 -0.0259123 -5.42126e-10 -2.10402e-10 -2.66942e-09 -2.22167 -0.733487 0.20892 -2.03217e-16 0.0 -3.88251e-19 0.79482 -8.6175 -1.67363 0.00731364 5.13095 0.0795729 -0.861826 -2.80514 -11.0008 2.03217e-16 0.0 3.88251e-19 4.79376 -10.7687 -1.04715 -0.027848 4.67609 -0.11583 1.00075 -0.623336 5.19796
-147.952 82.8041 -0.462318 -158.464 72.4018 -138.158 6.53342 -12.5166 6.02514 -2.1537 5.55222 1.69613 10.0587 8.3533 8.76842 -11.9029 -1.37033 17.8168 -0.0 0.0 0.0 -0.0 0.0 0.0 3.36226e-13 1.08256e-12 4.46085e-14 46.019 10.8054 -2.84998 -10.6148 -5.75615 17.2047 -0.00943975 -5.87605 -0.825501 -2.69466e-09 -7.70341e-13 2.38399e-09 -4.66529e-09 -3.12986e-12 4.10969e-09 -2.69466e-09 -7.72403e-13 2.38398e-09 7.73091 5.47488 0.417314 -2.69466e-09 -7.72303e-13 2.38399e-09 2.90554 0.965183 0.102902 -2.69466e-09 -7.7285e-13 2.38399e-09 10.2786 0.731801 0.0259123 -2.69467e-09 -7.71309e-13 2.384e-09 2.22167 -0.733487 -0.20892 3.36235e-13 1.08256e-12 4.44594e-14 -44.3995 19.9056 -6.28763 6.03019 -2.45674 -10.1291 4.17666e-05 -0.119928 0.016855 -1.16063e-09 -4.46729e-10 -5.60442e-09 -2.01157e-09 -7.70738e-10 -9.68599e-09 -1.16063e-09 -4.46728e-10 -5.60441e-09 -7.73091 5.47488 -0.417314 -1.16062e-09 -4.46732e-10 -5.60443e-09 -2.90554 0.965183 -0.102902 -1.16063e-09 -4.4673e-10 -5.60442e-09 -10.2786 0.731801 -0.0259123 -1.16062e-09 -4.4673e-10 -5.60442e-09 -2.22167 -0.733487 0.20892 -2.03217e-16 0.0 -3.88251e-19 0.135573 -11.9463 -3.3648 0.0132641 5.98598 0.138698 -2.84835 -6.51094 -22.8456 2.03217e-16 0.0 3.88251e-19 9.23296 -20.1161 -2.26747 -0.0170055 11.8277 -0.325554 2.46649 -5.41722 10.8801
-147.934 82.8041 -0.497932 -158.885 72.4726 -138.612 9.97233 -18.1337 9.02536 -3.39399 8.08265 2.47005 13.8112 12.0033 12.9356 -17.0685 -1.87532 25.9797 -0.0 0.0 0.0 -0.0 0.0 0.0 4.77672e-13 1.53752e-12 6.38386e-14 67.5136 15.7179 -4.24619 -14.3451 -7.96075 25.2233 -0.0709637 -8.56798 -1.21101 -3.84844e-09 -2.32372e-12 3.41353e-09 -6.6629e-09 -6.61538e-12 5.88459e-09 -3.84843e-09 -2.32679e-12 3.41352e-09 7.73091 5.47488 0.417314 -3.84843e-09 -2.32637e-12 3.41353e-09 2.90554 0.965183 0.102902 -3.84843e-09 -2.32709e-12 3.41353e-09 10.2786 0.731801 0.0259123 -3.84844e-09 -2.32551e-12 3.41353e-09 2.22167 -0.733487 -0.20892 4.77728e-13 1.53752e-12 6.37547e-14 -63.0648 28.8594 -9.85046 8.50756 -3.52035 -14.7898 7.57389e-05 -0.188783 0.0265321 -1.65945e-09 -6.31204e-10 -8.00938e-09 -2.87616e-09 -1.08898e-09 -1.38424e-08 -1.65946e-09 -6.31203e-10 -8.00937e-09 -7.73091 5.47488 -0.417314 -1.65945e-09 -6.31209e-10 -8.00939e-09 -2.90554 0.965183 -0.102902 -1.65946e-09 -6.31205e-10 -8.00938e-09 -10.2786 0.731801 -0.0259123 -1.65945e-09 -6.31206e-10 -8.00939e-09 -2.22167 -0.733487 0.20892 -2.03217e-16 0.0 -3.88251e-19 -0.647914 -14.9049 -4.91251 0.017054 6.74818 0.191466 -5.90108 -9.05508 -33.5978 2.03217e-16 0.0 3.88251e-19 12.7834 -28.4271 -3.53914 0.0392393 18.1847 -0.525863 4.58277 -9.49114 16.0943
-147.885 82.8038 -0.512893 -159.32 72.6595 -139.073 12.6716 -21.9558 11.313 -4.3753 9.79811 3.0364 16.1387 14.3821 15.9196 -20.5399 -2.11963 31.6335 -0.0 0.0 0.0 -0.0 0.0 0.0 5.33044e-13 1.70478e-12 7.31528e-14 82.754 19.0614 -5.29252 -16.5721 -9.22982 30.8898 -0.135641 -10.4426 -1.48425 -4.32949e-09 -7.75724e-12 3.90247e-09 -7.49617e-09 -1.64816e-11 6.72791e-09 -4.32949e-09 -7.76055e-12 3.90246e-09 7.73091 5.47488 0.417314 -4.32949e-09 -7.75976e-12 3.90247e-09 2.90554 0.965183 0.102902 -4.32948e-09 -7.76045e-12 3.90247e-09 10.2786 0.731801 0.0259123 -4.3295e-09 -7.75896e-12 3.90247e-09 2.22167 -0.733487 -0.20892 5.33123e-13 1.70478e-12 7.31031e-14 -75.1401 35.0565 -12.8562 10.1373 -4.22527 -18.0593 0.000101213 -0.287277 0.0403745 -1.8591e-09 -6.86052e-10 -9.08924e-09 -3.2225e-09 -1.18346e-09 -1.57087e-08 -1.85911e-09 -6.8605e-10 -9.08923e-09 -7.73091 5.47488 -0.417314 -1.85909e-09 -6.86057e-10 -9.08925e-09 -2.90554 0.965183 -0.102902 -1.85911e-09 -6.86053e-10 -9.08924e-09 -10.2786 0.731801 -0.0259123 -1.85909e-09 -6.86054e-10 -9.08924e-09 -2.22167 -0.733487 0.20892 -2.03217e-16 0.0 -3.88251e-19 -1.35965 -16.9748 -6.00923 0.0188128 7.27829 0.227948 -8.66775 -10.2629 -41.1871 2.03217e-16 0.0 3.88251e-19 14.9224 -34.1848 -4.59651 0.106826 22.5561 -0.676718 6.51341 -12.1444 19.8784
